<?xml version="1.0" encoding="utf-8"?>
<!-- Generator: Adobe Illustrator 23.0.1, SVG Export Plug-In . SVG Version: 6.00 Build 0)  -->
<svg version="1.1" id="Layer_1" xmlns="http://www.w3.org/2000/svg" xmlns:xlink="http://www.w3.org/1999/xlink" x="0px" y="0px"
	 viewBox="0 0 1080 1080" style="enable-background:new 0 0 1080 1080;" xml:space="preserve">
<style type="text/css">
	.st0{font-family:'MyriadPro-Bold';}
	.st1{font-size:174.5473px;}
	.st2{font-family:'MyriadPro-Regular';}
	.st3{opacity:0.35;}
	.st4{fill:#B3B3B3;}
	.st5{fill:#CCCCCC;}
	.st6{fill:#E6E6E6;}
	.st7{opacity:0.5;}
	.st8{fill:#D336EA;}
</style>
<text transform="matrix(1 0 0 1 208.877 512.6714)"><tspan x="0" y="0" class="st0 st1">SEGURA</tspan><tspan x="643.55" y="0" class="st2 st1">   </tspan></text>
<ellipse class="st3" cx="530.66" cy="659.9" rx="61.96" ry="6.11"/>
<g>
	<path class="st4" d="M541.1,661.4c-33.57,14.58-67.99-21.72-70.29-69.29c-1.78-36.77,17.93-62.44,41.13-64.09
		c20.8-1.48,43.05,16.53,53.12,44.38C577.38,606.51,569.54,649.05,541.1,661.4z"/>
	<path class="st5" d="M547.98,659.59c-33.41,14.54-68.54-21.54-71.65-68.87c-2.4-36.59,16.93-62.16,40.17-63.82
		c20.84-1.49,43.45,16.41,54.01,44.12C583.44,604.95,576.29,647.27,547.98,659.59z"/>
	<g>
		<path class="st6" d="M547.18,656.21c-31.94,13.58-65.57-20.72-68.82-65.91c-2.54-35.29,15.98-60.2,38.5-61.9
			c20.26-1.52,42.24,15.92,52.39,42.89C581.6,604.1,574.44,644.62,547.18,656.21z"/>
	</g>
	<polygon class="st5" points="545.88,659.71 508.41,528.04 512.02,527.44 551.18,658.23 	"/>
</g>
<text transform="matrix(1 0 0 1 560.125 658.3994)" class="st2 st1"> G A</text>
<text transform="matrix(1 0 0 1 202.4893 659.8105)" class="st2 st1">D R</text>
<g class="st7">
	<path class="st8" d="M541.1,661.4c-33.57,14.58-67.99-21.72-70.29-69.29c-1.78-36.77,17.93-62.44,41.13-64.09
		c20.8-1.48,43.05,16.53,53.12,44.38C577.38,606.51,569.54,649.05,541.1,661.4z"/>
	<path class="st8" d="M547.98,659.59c-33.41,14.54-68.54-21.54-71.65-68.87c-2.4-36.59,16.93-62.16,40.17-63.82
		c20.84-1.49,43.45,16.41,54.01,44.12C583.44,604.95,576.29,647.27,547.98,659.59z"/>
	<g>
		<path class="st8" d="M547.18,656.21c-31.94,13.58-65.57-20.72-68.82-65.91c-2.54-35.29,15.98-60.2,38.5-61.9
			c20.26-1.52,42.24,15.92,52.39,42.89C581.6,604.1,574.44,644.62,547.18,656.21z"/>
	</g>
	<polygon class="st8" points="545.88,659.71 508.41,528.04 512.02,527.44 551.18,658.23 	"/>
</g>
</svg>
